HIERARCHY
ROOT hip
{
  OFFSET 251.32 80.1873 -18.5399
  CHANNELS 6 Xposition Yposition Zposition Zrotation Xrotation Yrotation
  JOINT abdomen
  {
    OFFSET 0 20.6881 -0.73152
    CHANNELS 3 Zrotation Xrotation Yrotation
    JOINT chest
    {
      OFFSET 0 11.7043 -0.48768
      CHANNELS 3 Zrotation Xrotation Yrotation
      JOINT neck
      {
        OFFSET 0 22.1894 -2.19456
        CHANNELS 3 Zrotation Xrotation Yrotation
        JOINT head
        {
          OFFSET -0.24384 7.07133 1.2192
          CHANNELS 3 Zrotation Xrotation Yrotation
          JOINT leftEye
          {
            OFFSET 4.14528 8.04674 8.04672
            CHANNELS 3 Zrotation Xrotation Yrotation
            End Site
            {
              OFFSET 1 0 0
            }
          }
          JOINT rightEye
          {
            OFFSET -3.6576 8.04674 8.04672
            CHANNELS 3 Zrotation Xrotation Yrotation
            End Site
            {
              OFFSET 1 0 0
            }
          }
        }
      }
      JOINT rCollar
      {
        OFFSET -2.68224 19.2634 -4.8768
        CHANNELS 3 Zrotation Xrotation Yrotation
        JOINT rShldr
        {
          OFFSET -8.77824 -1.95073 1.46304
          CHANNELS 3 Zrotation Xrotation Yrotation
          JOINT rForeArm
          {
            OFFSET -28.1742 -1.7115 0.48768
            CHANNELS 3 Zrotation Xrotation Yrotation
            JOINT rHand
            {
              OFFSET -22.5879 0.773209 7.07136
              CHANNELS 3 Zrotation Xrotation Yrotation
              JOINT rThumb1
              {
                OFFSET -1.2192 -0.487915 3.41376
                CHANNELS 3 Zrotation Xrotation Yrotation
                JOINT rThumb2
                {
                  OFFSET -3.37035 -0.52449 3.41376
                  CHANNELS 3 Zrotation Xrotation Yrotation
                  End Site
                  {
                    OFFSET -1.78271 -1.18214 1.43049
                  }
                }
              }
              JOINT rIndex1
              {
                OFFSET -7.75947 0.938293 5.60832
                CHANNELS 3 Zrotation Xrotation Yrotation
                JOINT rIndex2
                {
                  OFFSET -2.54057 -0.884171 1.56538
                  CHANNELS 3 Zrotation Xrotation Yrotation
                  End Site
                  {
                    OFFSET -1.62519 -0.234802 1.16502
                  }
                }
              }
              JOINT rMid1
              {
                OFFSET -8.24714 1.18213 3.41376
                CHANNELS 3 Zrotation Xrotation Yrotation
                JOINT rMid2
                {
                  OFFSET -3.10165 -0.590103 1.0647
                  CHANNELS 3 Zrotation Xrotation Yrotation
                  End Site
                  {
                    OFFSET -2.48547 -0.328903 0.83742
                  }
                }
              }
              JOINT rRing1
              {
                OFFSET -8.82822 0.546677 1.51678
                CHANNELS 3 Zrotation Xrotation Yrotation
                JOINT rRing2
                {
                  OFFSET -2.60934 -0.819778 -0.0198488
                  CHANNELS 3 Zrotation Xrotation Yrotation
                  End Site
                  {
                    OFFSET -2.33842 -0.294052 0.168128
                  }
                }
              }
              JOINT rPinky1
              {
                OFFSET -8.27202 -0.0477905 -0.4584
                CHANNELS 3 Zrotation Xrotation Yrotation
                JOINT rPinky2
                {
                  OFFSET -1.82734 -0.647385 -0.700984
                  CHANNELS 3 Zrotation Xrotation Yrotation
                  End Site
                  {
                    OFFSET -1.69225 -0.51767 -0.607171
                  }
                }
              }
            }
          }
        }
      }
      JOINT lCollar
      {
        OFFSET 2.68224 19.2634 -4.8768
        CHANNELS 3 Zrotation Xrotation Yrotation
        JOINT lShldr
        {
          OFFSET 8.77824 -1.95073 1.46304
          CHANNELS 3 Zrotation Xrotation Yrotation
          JOINT lForeArm
          {
            OFFSET 28.1742 -1.7115 0.48768
            CHANNELS 3 Zrotation Xrotation Yrotation
            JOINT lHand
            {
              OFFSET 22.5879 0.773209 7.07136
              CHANNELS 3 Zrotation Xrotation Yrotation
              JOINT lThumb1
              {
                OFFSET 1.2192 -0.487915 3.41376
                CHANNELS 3 Zrotation Xrotation Yrotation
                JOINT lThumb2
                {
                  OFFSET 3.37035 -0.52449 3.41376
                  CHANNELS 3 Zrotation Xrotation Yrotation
                  End Site
                  {
                    OFFSET 1.78271 -1.18214 1.43049
                  }
                }
              }
              JOINT lIndex1
              {
                OFFSET 7.75947 0.938293 5.60832
                CHANNELS 3 Zrotation Xrotation Yrotation
                JOINT lIndex2
                {
                  OFFSET 2.54057 -0.884171 1.56538
                  CHANNELS 3 Zrotation Xrotation Yrotation
                  End Site
                  {
                    OFFSET 1.62519 -0.234802 1.16502
                  }
                }
              }
              JOINT lMid1
              {
                OFFSET 8.24714 1.18213 3.41376
                CHANNELS 3 Zrotation Xrotation Yrotation
                JOINT lMid2
                {
                  OFFSET 3.10165 -0.590103 1.0647
                  CHANNELS 3 Zrotation Xrotation Yrotation
                  End Site
                  {
                    OFFSET 2.48547 -0.328903 0.83742
                  }
                }
              }
              JOINT lRing1
              {
                OFFSET 8.82822 0.546677 1.51678
                CHANNELS 3 Zrotation Xrotation Yrotation
                JOINT lRing2
                {
                  OFFSET 2.60934 -0.819778 -0.0198488
                  CHANNELS 3 Zrotation Xrotation Yrotation
                  End Site
                  {
                    OFFSET 2.33842 -0.294052 0.168128
                  }
                }
              }
              JOINT lPinky1
              {
                OFFSET 8.27202 -0.0477905 -0.4584
                CHANNELS 3 Zrotation Xrotation Yrotation
                JOINT lPinky2
                {
                  OFFSET 1.82734 -0.647385 -0.700984
                  CHANNELS 3 Zrotation Xrotation Yrotation
                  End Site
                  {
                    OFFSET 1.69225 -0.51767 -0.607171
                  }
                }
              }
            }
          }
        }
      }
    }
  }
  JOINT rButtock
  {
    OFFSET -8.77824 4.35084 1.2192
    CHANNELS 3 Zrotation Xrotation Yrotation
    JOINT rThigh
    {
      OFFSET 0 -1.70687 -2.19456
      CHANNELS 3 Zrotation Xrotation Yrotation
      JOINT rShin
      {
        OFFSET 0 -36.8199 0.73152
        CHANNELS 3 Zrotation Xrotation Yrotation
        JOINT rFoot
        {
          OFFSET 0.73152 -45.1104 -5.12064
          CHANNELS 3 Zrotation Xrotation Yrotation
          End Site
          {
            OFFSET -1.1221 -3.69964 12.103
          }
        }
      }
    }
  }
  JOINT lButtock
  {
    OFFSET 8.77824 4.35084 1.2192
    CHANNELS 3 Zrotation Xrotation Yrotation
    JOINT lThigh
    {
      OFFSET 0 -1.70687 -2.19456
      CHANNELS 3 Zrotation Xrotation Yrotation
      JOINT lShin
      {
        OFFSET 0 -36.8199 0.73152
        CHANNELS 3 Zrotation Xrotation Yrotation
        JOINT lFoot
        {
          OFFSET -0.73152 -45.1104 -5.12064
          CHANNELS 3 Zrotation Xrotation Yrotation
          End Site
          {
            OFFSET 1.1221 -3.69964 12.103
          }
        }
      }
    }
  }
}
MOTION
Frames:	9
Frame Time:	0.00833333
-165.645 83.185 -0.601943 2.38048 0.0111362 -0.0455976 -3.13123 0.0020855 -0.0845038 -0.863236 0.0181967 -0.149333 -2.96777e-014 -1.59028e-015 -1.04362e-015 -8.91083e-014 -6.36111e-015 -2.88393e-015 -0 0 0 -0 0 0 -1.43634e-014 1.02887e-016 -4.96962e-017 -3.06286e-013 2.17421e-015 -9.54166e-015 -5.28623e-012 1.6851e-012 -1.11319e-013 -6.08968e-011 -1.18021e-012 -1.98785e-012 -1.43587e-010 1.09697e-012 -4.51639e-012 -2.47988e-010 1.89561e-012 -7.79077e-012 -1.43584e-010 1.0965e-012 -4.52593e-012 7.73091 5.47488 0.417314 -1.43587e-010 1.09689e-012 -4.51321e-012 2.90554 0.965183 0.102902 -1.43582e-010 1.09729e-012 -4.51559e-012 10.2786 0.731801 0.0259123 -1.43593e-010 1.09848e-012 -4.50367e-012 2.22167 -0.733487 -0.20892 -1.45608e-014 1.08516e-016 -6.4605e-016 -3.10929e-013 1.98785e-015 -1.09332e-014 -5.34323e-012 -1.51136e-012 -1.52667e-013 -6.08681e-011 2.00733e-012 -1.92106e-012 -1.43638e-010 1.08019e-012 -4.51003e-012 -2.48043e-010 1.87017e-012 -7.7693e-012 -1.43643e-010 1.0798e-012 -4.4973e-012 -7.73091 5.47488 -0.417314 -1.43638e-010 1.0799e-012 -4.50685e-012 -2.90554 0.965183 -0.102902 -1.43642e-010 1.0802e-012 -4.50764e-012 -10.2786 0.731801 -0.0259123 -1.43627e-010 1.08338e-012 -4.51957e-012 -2.22167 -0.733487 0.20892 -2.03217e-016 0 -3.88251e-019 -1.91834 -1.93503 0.0146172 -0.00850387 -2.07867 -0.0697898 -0.459127 4.0001 0.132527 2.03217e-016 0 3.88251e-019 -2.83778 -9.32631 0.32232 -0.00902776 11.308 -0.235107 0.526875 -1.99514 -0.0183143 
-159.65 79.2566 -8.14807 15.8453 -17.199 -28.0106 -5.81441 5.63809 -3.89096 2.47827 -0.633848 -1.23904 -2.26675 1.82704 0.0242999 3.38422 -11.1436 1.7557 -0 0 0 -0 0 0 -4.51241e-014 2.47385e-013 -3.58647e-014 20.9594 0.644836 5.44653 -21.1053 -18.9342 15.1412 0.204402 -10.1814 -1.35363 3.80756e-010 -7.5961e-010 3.68427e-010 6.46313e-010 -1.34727e-009 6.50313e-010 3.8076e-010 -7.59611e-010 3.68419e-010 7.73091 5.47488 0.417314 3.80756e-010 -7.59605e-010 3.68427e-010 2.90554 0.965183 0.102902 3.80762e-010 -7.59609e-010 3.68427e-010 10.2786 0.731801 0.0259123 3.80751e-010 -7.59608e-010 3.68437e-010 2.22167 -0.733487 -0.20892 -4.52692e-014 2.47395e-013 -3.63376e-014 -20.2599 11.9359 -1.08211 19.4 -17.0999 -15.1691 -0.086252 -6.57306 0.902498 -7.46579e-011 2.38604e-010 -2.00077e-010 -1.25784e-010 4.13504e-010 -3.45517e-010 -7.46634e-011 2.38605e-010 -2.00063e-010 -7.73091 5.47488 -0.417314 -7.46573e-011 2.38605e-010 -2.00073e-010 -2.90554 0.965183 -0.102902 -7.46632e-011 2.38605e-010 -2.00074e-010 -10.2786 0.731801 -0.0259123 -7.46503e-011 2.38608e-010 -2.00083e-010 -2.22167 -0.733487 0.20892 -2.03217e-016 0 -3.88251e-019 -2.85338 -19.7764 0.0771442 0.18806 17.3376 0.24116 -0.622373 1.48645 0.4808 2.03217e-016 0 3.88251e-019 -3.58929 -1.36618 -0.535316 -0.128405 13.9754 -0.659979 0.676663 0.696051 4.4467 
-155.378 79.8504 -8.17189 14.2492 -21.5162 -61.4194 -7.83051 11.5505 -8.02831 5.97205 -1.35115 -2.38637 -4.66391 3.75709 0.0295135 7.78053 -22.8854 3.81251 -0 0 0 -0 0 0 -7.78476e-014 5.14891e-013 -7.49077e-014 42.9401 1.21869 11.1399 -31.0631 -34.1022 36.4436 -0.142157 -21.1117 -2.96247 9.78346e-010 -1.58727e-009 7.91731e-010 1.66585e-009 -2.81643e-009 1.39719e-009 9.7835e-010 -1.58727e-009 7.91725e-010 7.73091 5.47488 0.417314 9.78346e-010 -1.58726e-009 7.91728e-010 2.90554 0.965183 0.102902 9.78352e-010 -1.58727e-009 7.9173e-010 10.2786 0.731801 0.0259123 9.78341e-010 -1.58726e-009 7.9174e-010 2.22167 -0.733487 -0.20892 -7.79364e-014 5.14906e-013 -7.52493e-014 -41.1155 24.4749 -2.49443 29.2395 -31.0631 -35.4555 0.055204 -13.6111 1.91054 -1.65829e-011 4.91036e-010 -4.1884e-010 -2.19502e-011 8.51215e-010 -7.2354e-010 -1.65885e-011 4.91038e-010 -4.18824e-010 -7.73091 5.47488 -0.417314 -1.6582e-011 4.91038e-010 -4.18834e-010 -2.90554 0.965183 -0.102902 -1.659e-011 4.91038e-010 -4.18836e-010 -10.2786 0.731801 -0.0259123 -1.65783e-011 4.91041e-010 -4.18842e-010 -2.22167 -0.733487 0.20892 -2.03217e-016 0 -3.88251e-019 -3.77496 -38.7052 0.200226 0.115027 38.1654 0.69734 -0.771337 -1.21359 0.793387 2.03217e-016 0 3.88251e-019 -4.11481 7.02021 -1.50258 -0.212974 16.6861 -1.1303 0.375951 3.44788 9.24293 
-151.182 80.3698 -8.26721 12.0125 -8.57067 -84.5929 -8.86804 16.6019 -11.9525 9.0869 -1.93493 -3.42017 -6.80491 5.48111 0.0731973 12.5392 -33.2925 6.18606 -0 0 0 -0 0 0 -1.06646e-013 7.41949e-013 -1.07495e-013 62.5157 1.86478 16.3474 -30.142 -38.7378 60.7968 -1.0249 -30.4703 -4.63869 1.42944e-009 -2.28102e-009 1.11431e-009 2.43491e-009 -4.04561e-009 1.96652e-009 1.42945e-009 -2.28102e-009 1.11431e-009 7.73091 5.47488 0.417314 1.42944e-009 -2.28101e-009 1.11431e-009 2.90554 0.965183 0.102902 1.42945e-009 -2.28102e-009 1.11431e-009 10.2786 0.731801 0.0259123 1.42944e-009 -2.28102e-009 1.11432e-009 2.22167 -0.733487 -0.20892 -1.06686e-013 7.41967e-013 -1.07721e-013 -59.1617 35.7506 -3.91462 29.4493 -35.4558 -57.5959 0.395042 -19.699 2.85703 6.33023e-011 7.13652e-010 -5.91212e-010 1.18735e-010 1.23677e-009 -1.02101e-009 6.32965e-011 7.13656e-010 -5.91195e-010 -7.73091 5.47488 -0.417314 6.33033e-011 7.13655e-010 -5.91205e-010 -2.90554 0.965183 -0.102902 6.32938e-011 7.13655e-010 -5.91207e-010 -10.2786 0.731801 -0.0259123 6.33042e-011 7.13658e-010 -5.9121e-010 -2.22167 -0.733487 0.20892 -2.03217e-016 0 -3.88251e-019 -4.52684 -55.4587 0.332568 -0.446645 56.1616 1.49081 -0.857084 -3.53998 1.17976 2.03217e-016 0 3.88251e-019 -4.36773 14.5428 -2.31585 -0.241481 19.3061 -1.54727 -0.275298 5.91908 13.4488 
-147.019 80.8618 -8.40116 13.7834 7.04988 -92.2641 -9.13538 19.7945 -14.9044 11.3118 -2.18796 -4.16815 -8.30856 6.69005 0.213353 16.5113 -40.4782 8.54467 -0 0 0 -0 0 0 -1.2563e-013 8.67885e-013 -1.23942e-013 76.2418 2.73038 20.3389 -28.4325 -35.884 76.8153 -1.90309 -35.9792 -5.85614 1.51431e-009 -2.64003e-009 1.18509e-009 2.57779e-009 -4.67485e-009 2.09196e-009 1.51431e-009 -2.64003e-009 1.18508e-009 7.73091 5.47488 0.417314 1.5143e-009 -2.64002e-009 1.18508e-009 2.90554 0.965183 0.102902 1.51431e-009 -2.64003e-009 1.18509e-009 10.2786 0.731801 0.0259123 1.5143e-009 -2.64002e-009 1.18509e-009 2.22167 -0.733487 -0.20892 -1.25643e-013 8.67903e-013 -1.24091e-013 -71.6399 43.9429 -4.61111 28.2876 -32.763 -71.6859 0.724437 -23.4324 3.49216 1.97713e-010 8.6173e-010 -6.47605e-010 3.51548e-010 1.49193e-009 -1.11711e-009 1.97706e-010 8.61734e-010 -6.4759e-010 -7.73091 5.47488 -0.417314 1.97713e-010 8.61733e-010 -6.47599e-010 -2.90554 0.965183 -0.102902 1.97704e-010 8.61733e-010 -6.47601e-010 -10.2786 0.731801 -0.0259123 1.97713e-010 8.61736e-010 -6.47602e-010 -2.22167 -0.733487 0.20892 -2.03217e-016 0 -3.88251e-019 -5.18565 -66.7749 0.23463 -1.48026 67.0854 2.62394 -0.830316 -4.93254 1.7476 2.03217e-016 0 3.88251e-019 -4.52481 19.9232 -2.63512 -0.216072 21.7025 -1.80389 -0.933786 7.85144 16.1054 
-142.879 81.3507 -8.49727 14.8102 14.1321 -92.3771 -9.14917 20.5336 -16.2248 12.3347 -1.95113 -4.531 -8.91123 7.16615 0.503405 18.1984 -43.1965 10.0977 -0 0 0 -0 0 0 -1.29082e-013 8.54198e-013 -1.21297e-013 81.9283 3.88927 22.5794 -28.3611 -34.098 82.9165 -2.03971 -36.2219 -5.94859 1.00812e-009 -2.55516e-009 8.96822e-010 1.70966e-009 -4.50253e-009 1.58275e-009 1.00812e-009 -2.55516e-009 8.96819e-010 7.73091 5.47488 0.417314 1.00811e-009 -2.55516e-009 8.96828e-010 2.90554 0.965183 0.102902 1.00812e-009 -2.55516e-009 8.96821e-010 10.2786 0.731801 0.0259123 1.00811e-009 -2.55516e-009 8.96829e-010 2.22167 -0.733487 -0.20892 -1.29102e-013 8.5421e-013 -1.21426e-013 -77.1941 47.8333 -3.61181 28.1727 -30.3638 -75.7374 0.776578 -23.6422 3.53683 4.10962e-010 8.94359e-010 -5.06385e-010 7.17219e-010 1.54501e-009 -8.7034e-010 4.10955e-010 8.94363e-010 -5.06372e-010 -7.73091 5.47488 -0.417314 4.10961e-010 8.94362e-010 -5.0638e-010 -2.90554 0.965183 -0.102902 4.10955e-010 8.94362e-010 -5.06381e-010 -10.2786 0.731801 -0.0259123 4.10963e-010 8.94364e-010 -5.06383e-010 -2.22167 -0.733487 0.20892 -2.03217e-016 0 -3.88251e-019 -6.02965 -70.4785 -0.398787 -1.73028 67.7634 2.88739 -0.677632 -5.01234 2.62039 2.03217e-016 0 3.88251e-019 -4.85972 22.4818 -2.23651 -0.171108 23.449 -1.80291 -1.2214 9.20772 16.5695 
-138.807 81.81 -8.57204 14.7045 13.6198 -91.2712 -9.16414 19.5873 -16.3006 12.5031 -1.36629 -4.61814 -8.86726 7.1191 0.899378 17.83 -42.776 10.7422 -0 0 0 -0 0 0 -1.21526e-013 7.40689e-013 -1.04846e-013 81.8917 5.27169 23.5808 -28.3 -35.4386 84.3403 -1.58703 -32.7055 -5.19526 8.34766e-011 -2.15207e-009 3.5241e-010 1.2576e-010 -3.75584e-009 6.20845e-010 8.34799e-011 -2.15207e-009 3.52406e-010 7.73091 5.47488 0.417314 8.34686e-011 -2.15208e-009 3.52431e-010 2.90554 0.965183 0.102902 8.34834e-011 -2.15207e-009 3.5241e-010 10.2786 0.731801 0.0259123 8.34733e-011 -2.15206e-009 3.52417e-010 2.22167 -0.733487 -0.20892 -1.21577e-013 7.40691e-013 -1.04996e-013 -78.04 48.6201 -1.19014 28.0957 -30.0596 -74.2612 0.612273 -21.3479 3.15176 6.80406e-010 8.45054e-010 -2.25689e-010 1.1776e-009 1.45466e-009 -3.81574e-010 6.80397e-010 8.45056e-010 -2.25682e-010 -7.73091 5.47488 -0.417314 6.80403e-010 8.45056e-010 -2.25688e-010 -2.90554 0.965183 -0.102902 6.80402e-010 8.45056e-010 -2.25687e-010 -10.2786 0.731801 -0.0259123 6.80409e-010 8.45057e-010 -2.2569e-010 -2.22167 -0.733487 0.20892 -2.03217e-016 0 -3.88251e-019 -6.82156 -68.7409 -1.25246 -1.10624 61.145 2.23206 -0.474884 -4.15519 3.70504 2.03217e-016 0 3.88251e-019 -5.36862 23.0144 -1.29322 -0.130915 24.748 -1.61062 -1.1205 10.1892 15.4442 
-134.859 82.1358 -8.66059 14.2304 9.99365 -90.4756 -9.11262 18.071 -15.8352 12.2974 -0.688371 -4.56974 -8.57493 6.88116 1.31358 16.6817 -41.2126 10.9956 -0 0 0 -0 0 0 -1.12434e-013 5.84133e-013 -7.72705e-014 79.4195 6.80338 24.1854 -28.1514 -38.2587 84.0542 -1.04926 -27.5715 -4.20788 -8.83221e-010 -1.58203e-009 -2.84044e-010 -1.52946e-009 -2.71803e-009 -5.01005e-010 -8.83218e-010 -1.58203e-009 -2.84049e-010 7.73091 5.47488 0.417314 -8.83232e-010 -1.58206e-009 -2.84009e-010 2.90554 0.965183 0.102902 -8.83214e-010 -1.58202e-009 -2.84042e-010 10.2786 0.731801 0.0259123 -8.83224e-010 -1.58202e-009 -2.84035e-010 2.22167 -0.733487 -0.20892 -1.12516e-013 5.84125e-013 -7.74523e-014 -77.087 48.1518 1.79678 27.9986 -30.3482 -70.3598 0.436196 -18.4372 2.6843 9.68322e-010 7.80725e-010 5.44028e-011 1.66967e-009 1.33821e-009 1.06498e-010 9.68312e-010 7.80726e-010 5.44057e-011 -7.73091 5.47488 -0.417314 9.68317e-010 7.80726e-010 5.44012e-011 -2.90554 0.965183 -0.102902 9.6832e-010 7.80725e-010 5.44042e-011 -10.2786 0.731801 -0.0259123 9.68327e-010 7.80726e-010 5.43984e-011 -2.22167 -0.733487 0.20892 -2.03217e-016 0 -3.88251e-019 -7.33824 -64.8208 -2.09904 -0.597329 52.181 1.65837 -0.294794 -2.93374 4.78548 2.03217e-016 0 3.88251e-019 -5.86978 22.4628 -0.0105056 -0.0878111 26.4101 -1.36401 -0.799597 10.9336 13.6211 
-130.909 82.2964 -8.69895 13.8484 7.85512 -89.8761 -8.94149 17.0972 -15.5096 12.2013 -0.172474 -4.52507 -8.4415 6.78478 1.65942 16.1734 -40.4765 11.4712 -0 0 0 -0 0 0 -1.11278e-013 4.41311e-013 -4.12478e-014 77.7258 8.37373 25.2378 -28.0134 -40.3438 84.5398 -0.694883 -22.9825 -3.41716 -1.51558e-009 -9.9632e-010 -8.48432e-010 -2.61157e-009 -1.67234e-009 -1.49006e-009 -1.51558e-009 -9.96318e-010 -8.48438e-010 7.73091 5.47488 0.417314 -1.5156e-009 -9.9636e-010 -8.48391e-010 2.90554 0.965183 0.102902 -1.51557e-009 -9.96318e-010 -8.4843e-010 10.2786 0.731801 0.0259123 -1.51558e-009 -9.96317e-010 -8.48422e-010 2.22167 -0.733487 -0.20892 -1.11368e-013 4.41293e-013 -4.14466e-014 -77.5753 48.3336 4.72393 27.8811 -29.9453 -67.1615 0.35934 -16.804 2.4325 1.23699e-009 7.68282e-010 1.93813e-010 2.13038e-009 1.31299e-009 3.5118e-010 1.23698e-009 7.68283e-010 1.93813e-010 -7.73091 5.47488 -0.417314 1.23698e-009 7.68284e-010 1.9381e-010 -2.90554 0.965183 -0.102902 1.23699e-009 7.68282e-010 1.93814e-010 -10.2786 0.731801 -0.0259123 1.23699e-009 7.68282e-010 1.93807e-010 -2.22167 -0.733487 0.20892 -2.03217e-016 0 -3.88251e-019 -7.81001 -61.9739 -3.13504 -0.389495 45.8307 1.3679 -0.155418 -1.91882 5.64852 2.03217e-016 0 3.88251e-019 -6.2124 21.7738 1.41526 -0.0299383 29.2464 -1.20393 -0.487512 11.5717 12.0059 
